P2
3 3
255
70 80 90
100 110 120
130 140 150
