<svg xmlns="http://www.w3.org/2000/svg" width="920" height="420" viewBox="0 0 920 420" role="img" aria-labelledby="title desc">
  <title id="title">Process-curve finite metric space overview</title>
  <desc id="desc">Two licensed process-curve domains. Each panel shows source process windows by role as solid curves and a downsampled query as a dashed curve.</desc>
  <rect width="920" height="420" fill="#f8fafc"/>
  <text x="54.0" y="44.0" font-family="Arial, sans-serif" font-size="23" font-weight="700" fill="#172033">Process curves as a finite metric space</text>
  <text x="54.0" y="70.0" font-family="Arial, sans-serif" font-size="13" fill="#526070">Records are 36-sample windows; queries are even-downsampled 18-sample windows.</text>
  <rect x="54.0" y="96.0" width="396.0" height="252.0" rx="8" fill="#ffffff" stroke="#cbd5e1"/>
  <text x="72.0" y="124.0" font-family="Arial, sans-serif" font-size="15" font-weight="700" fill="#172033">Power Demand</text>
  <polyline fill="none" stroke="#2563eb" stroke-width="2" stroke-linejoin="round" stroke-linecap="round" opacity="0.92" points="72.0,164.9 82.3,144.6 92.6,148.1 102.9,148.9 113.1,163.3 123.4,181.6 133.7,179.5 144.0,175.9 154.3,171.9 164.6,173.4 174.9,144.0 185.1,149.1 195.4,159.8 205.7,183.9 216.0,204.7 226.3,214.8 236.6,232.7 246.9,252.3 257.1,256.4 267.4,264.3 277.7,260.4 288.0,260.4 298.3,248.5 308.6,206.3 318.9,208.8 329.1,191.8 339.4,182.0 349.7,189.2 360.0,201.7 370.3,218.5 380.6,238.8 390.9,237.0 401.1,234.8 411.4,236.8 421.7,194.6 432.0,193.9"/>
  <polyline fill="none" stroke="#16a34a" stroke-width="2" stroke-linejoin="round" stroke-linecap="round" opacity="0.92" points="72.0,188.5 82.3,191.0 92.6,192.1 102.9,198.0 113.1,159.8 123.4,168.1 133.7,185.7 144.0,194.8 154.3,208.4 164.6,231.2 174.9,258.5 185.1,274.3 195.4,277.1 205.7,283.5 216.0,281.2 226.3,276.6 236.6,265.9 246.9,232.7 257.1,222.3 267.4,203.4 277.7,195.1 288.0,201.8 298.3,210.3 308.6,225.0 318.9,235.2 329.1,234.7 339.4,230.6 349.7,220.9 360.0,187.5 370.3,182.5 380.6,195.5 390.9,209.0 401.1,222.3 411.4,232.7 421.7,252.1 432.0,261.0"/>
  <polyline fill="none" stroke="#dc2626" stroke-width="2" stroke-linejoin="round" stroke-linecap="round" opacity="0.92" points="72.0,300.0 82.3,298.0 92.6,291.9 102.9,287.6 113.1,279.8 123.4,276.2 133.7,276.0 144.0,274.3 154.3,269.7 164.6,264.0 174.9,261.3 185.1,263.5 195.4,264.1 205.7,266.1 216.0,263.3 226.3,257.1 236.6,251.0 246.9,246.5 257.1,244.0 267.4,240.5 277.7,236.4 288.0,233.5 298.3,231.9 308.6,231.1 318.9,227.1 329.1,224.0 339.4,222.1 349.7,219.2 360.0,216.3 370.3,215.5 380.6,216.5 390.9,216.2 401.1,217.2 411.4,217.1 421.7,218.5 432.0,218.6"/>
  <polyline fill="none" stroke="#7c3aed" stroke-width="2" stroke-linejoin="round" stroke-linecap="round" opacity="0.92" points="72.0,299.6 82.3,286.7 92.6,286.5 102.9,278.9 113.1,270.7 123.4,274.3 133.7,256.5 144.0,246.6 154.3,246.1 164.6,246.8 174.9,257.0 185.1,265.1 195.4,267.9 205.7,268.3 216.0,269.0 226.3,250.5 236.6,213.9 246.9,216.3 257.1,222.4 267.4,234.4 277.7,243.2 288.0,261.0 298.3,273.1 308.6,274.9 318.9,277.7 329.1,282.8 339.4,263.3 349.7,258.2 360.0,221.0 370.3,187.4 380.6,163.2 390.9,161.5 401.1,160.3 411.4,173.4 421.7,188.8 432.0,191.0"/>
  <polyline fill="none" stroke="#0f172a" stroke-width="2" stroke-dasharray="5 4" stroke-linejoin="round" stroke-linecap="round" points="72.0,300.0 93.2,291.9 114.4,279.8 135.5,276.0 156.7,269.7 177.9,261.3 199.1,264.1 220.2,263.3 241.4,251.0 262.6,244.0 283.8,236.4 304.9,231.9 326.1,227.1 347.3,222.1 368.5,216.3 389.6,216.5 410.8,217.2 432.0,218.5"/>
  <text x="72.0" y="330.0" font-family="Arial, sans-serif" font-size="11" fill="#526070">solid: source roles    dashed: query</text>
  <rect x="478.0" y="96.0" width="396.0" height="252.0" rx="8" fill="#ffffff" stroke="#cbd5e1"/>
  <text x="496.0" y="124.0" font-family="Arial, sans-serif" font-size="15" font-weight="700" fill="#172033">Internal Bleeding</text>
  <polyline fill="none" stroke="#2563eb" stroke-width="2" stroke-linejoin="round" stroke-linecap="round" opacity="0.92" points="496.0,247.2 506.3,239.1 516.6,229.5 526.9,220.3 537.1,212.2 547.4,207.1 557.7,200.7 568.0,192.6 578.3,186.7 588.6,182.0 598.9,174.9 609.1,169.6 619.4,164.1 629.7,161.6 640.0,155.2 650.3,151.5 660.6,149.1 670.9,148.3 681.1,145.7 691.4,145.0 701.7,144.0 712.0,144.5 722.3,146.9 732.6,147.1 742.9,149.7 753.1,154.5 763.4,158.5 773.7,160.3 784.0,162.8 794.3,166.5 804.6,171.8 814.9,175.6 825.1,179.8 835.4,182.2 845.7,184.7 856.0,189.9"/>
  <polyline fill="none" stroke="#16a34a" stroke-width="2" stroke-linejoin="round" stroke-linecap="round" opacity="0.92" points="496.0,288.7 506.3,290.7 516.6,289.9 526.9,287.8 537.1,287.4 547.4,288.6 557.7,288.7 568.0,288.5 578.3,289.3 588.6,290.2 598.9,291.0 609.1,293.3 619.4,293.0 629.7,291.9 640.0,293.0 650.3,294.7 660.6,294.8 670.9,293.3 681.1,291.6 691.4,293.7 701.7,293.7 712.0,293.5 722.3,292.9 732.6,294.6 742.9,296.3 753.1,297.5 763.4,296.9 773.7,298.3 784.0,300.0 794.3,298.7 804.6,296.9 814.9,297.2 825.1,298.0 835.4,297.5 845.7,298.8 856.0,297.3"/>
  <polyline fill="none" stroke="#dc2626" stroke-width="2" stroke-linejoin="round" stroke-linecap="round" opacity="0.92" points="496.0,289.8 506.3,291.0 516.6,292.1 526.9,289.9 537.1,288.8 547.4,289.5 557.7,288.2 568.0,286.6 578.3,285.8 588.6,283.6 598.9,281.6 609.1,279.7 619.4,279.4 629.7,277.5 640.0,274.1 650.3,271.5 660.6,264.7 670.9,257.3 681.1,252.6 691.4,248.8 701.7,244.2 712.0,239.3 722.3,234.8 732.6,229.8 742.9,225.0 753.1,220.5 763.4,217.1 773.7,214.9 784.0,212.2 794.3,208.3 804.6,203.7 814.9,200.3 825.1,196.4 835.4,193.2 845.7,190.6 856.0,187.4"/>
  <polyline fill="none" stroke="#7c3aed" stroke-width="2" stroke-linejoin="round" stroke-linecap="round" opacity="0.92" points="496.0,243.2 506.3,243.1 516.6,243.4 526.9,245.2 537.1,245.8 547.4,247.4 557.7,247.9 568.0,246.5 578.3,246.6 588.6,247.0 598.9,247.9 609.1,248.7 619.4,248.9 629.7,249.8 640.0,250.8 650.3,250.3 660.6,250.1 670.9,249.9 681.1,252.1 691.4,252.2 701.7,253.5 712.0,254.8 722.3,257.0 732.6,259.0 742.9,260.2 753.1,262.1 763.4,263.8 773.7,264.4 784.0,265.4 794.3,264.8 804.6,265.8 814.9,264.3 825.1,263.4 835.4,262.2 845.7,263.2 856.0,263.7"/>
  <polyline fill="none" stroke="#0f172a" stroke-width="2" stroke-dasharray="5 4" stroke-linejoin="round" stroke-linecap="round" points="496.0,289.8 517.2,292.1 538.4,288.8 559.5,288.2 580.7,285.8 601.9,281.6 623.1,279.4 644.2,274.1 665.4,264.7 686.6,252.6 707.8,244.2 728.9,234.8 750.1,225.0 771.3,217.1 792.5,212.2 813.6,203.7 834.8,196.4 856.0,190.6"/>
  <text x="496.0" y="330.0" font-family="Arial, sans-serif" font-size="11" fill="#526070">solid: source roles    dashed: query</text>
  <line x1="54.0" y1="376.0" x2="80.0" y2="376.0" stroke="#2563eb" stroke-width="3"/>
  <text x="88.0" y="380.0" font-family="Arial, sans-serif" font-size="11" fill="#334155">normal</text>
  <line x1="160.0" y1="376.0" x2="186.0" y2="376.0" stroke="#16a34a" stroke-width="3"/>
  <text x="194.0" y="380.0" font-family="Arial, sans-serif" font-size="11" fill="#334155">pre_anomaly</text>
  <line x1="301.0" y1="376.0" x2="327.0" y2="376.0" stroke="#dc2626" stroke-width="3"/>
  <text x="335.0" y="380.0" font-family="Arial, sans-serif" font-size="11" fill="#334155">anomaly</text>
  <line x1="414.0" y1="376.0" x2="440.0" y2="376.0" stroke="#7c3aed" stroke-width="3"/>
  <text x="448.0" y="380.0" font-family="Arial, sans-serif" font-size="11" fill="#334155">recovery</text>
  <text x="54.0" y="406.0" font-family="Arial, sans-serif" font-size="11" fill="#64748b">Source: UCR Time Series Anomaly Detection datasets (2021), Figshare, CC BY 4.0.</text>
</svg>
