<svg xmlns="http://www.w3.org/2000/svg" width="920" height="480" viewBox="0 0 920 480" role="img" aria-labelledby="title desc">
  <title id="title">Internal Bleeding query recovery</title>
  <desc id="desc">A downsampled Internal Bleeding query, the finite metric-space winner record, and the padded-vector baseline winner record, with their metric values and recovered roles.</desc>
  <rect width="920" height="480" fill="#f8fafc"/>
  <text x="54.0" y="44.0" font-family="Arial, sans-serif" font-size="23" font-weight="700" fill="#172033">Internal Bleeding query recovery</text>
  <text x="54.0" y="70.0" font-family="Arial, sans-serif" font-size="13" fill="#526070">Finite metric space over process curves vs padded-vector baseline. UCR 2021, CC BY 4.0.</text>
  <line x1="70.0" y1="300.0" x2="856.0" y2="300.0" stroke="#cbd5e1"/>
  <line x1="70.0" y1="104.0" x2="70.0" y2="300.0" stroke="#cbd5e1"/>
  <text x="42.0" y="304.0" font-family="Arial, sans-serif" font-size="10" fill="#64748b">low</text>
  <text x="40.0" y="110.0" font-family="Arial, sans-serif" font-size="10" fill="#64748b">high</text>
  <polyline fill="none" stroke="#16a34a" stroke-width="2.5" stroke-linejoin="round" stroke-linecap="round" points="70.0,282.3 92.5,284.3 114.9,286.2 137.4,282.5 159.8,280.5 182.3,281.7 204.7,279.5 227.2,276.7 249.7,275.3 272.1,271.4 294.6,267.9 317.0,264.7 339.5,264.0 361.9,260.8 384.4,254.9 406.9,250.4 429.3,238.5 451.8,225.7 474.2,217.4 496.7,210.8 519.1,202.8 541.6,194.2 564.1,186.5 586.5,177.9 609.0,169.4 631.4,161.5 653.9,155.6 676.3,151.8 698.8,147.1 721.3,140.4 743.7,132.3 766.2,126.4 788.6,119.5 811.1,114.0 833.5,109.5 856.0,104.0"/>
  <polyline fill="none" stroke="#dc2626" stroke-width="2.5" stroke-linejoin="round" stroke-linecap="round" points="70.0,280.4 92.5,283.8 114.9,282.4 137.4,278.7 159.8,278.0 182.3,280.2 204.7,280.3 227.2,280.0 249.7,281.3 272.1,282.9 294.6,284.3 317.0,288.3 339.5,287.9 361.9,285.9 384.4,287.7 406.9,290.8 429.3,291.0 451.8,288.3 474.2,285.3 496.7,289.0 519.1,289.0 541.6,288.7 564.1,287.6 586.5,290.5 609.0,293.5 631.4,295.6 653.9,294.7 676.3,297.1 698.8,300.0 721.3,297.7 743.7,294.6 766.2,295.1 788.6,296.5 811.1,295.6 833.5,297.8 856.0,295.3"/>
  <polyline fill="none" stroke="#0f172a" stroke-width="2" stroke-dasharray="5 4" stroke-linejoin="round" stroke-linecap="round" points="70.0,282.3 116.2,286.2 162.5,280.5 208.7,279.5 254.9,275.3 301.2,267.9 347.4,264.0 393.6,254.9 439.9,238.5 486.1,217.4 532.4,202.8 578.6,186.5 624.8,169.4 671.1,155.6 717.3,147.1 763.5,132.3 809.8,119.5 856.0,109.5"/>
  <rect x="54.0" y="328.0" width="264.0" height="96" rx="8" fill="#ffffff" stroke="#cbd5e1"/>
  <line x1="72.0" y1="350.0" x2="98.0" y2="350.0" stroke="#0f172a" stroke-width="3"/>
  <text x="106.0" y="354.0" font-family="Arial, sans-serif" font-size="12" font-weight="700" fill="#172033">Query (dashed)</text>
  <text x="72.0" y="378.0" font-family="Arial, sans-serif" font-size="12" fill="#172033">anomaly_start role, 18 samples</text>
  <text x="72.0" y="398.0" font-family="Arial, sans-serif" font-size="11" fill="#526070">the record to recover</text>
  <rect x="328.0" y="328.0" width="264.0" height="96" rx="8" fill="#ffffff" stroke="#cbd5e1"/>
  <line x1="346.0" y1="350.0" x2="372.0" y2="350.0" stroke="#16a34a" stroke-width="3"/>
  <text x="380.0" y="354.0" font-family="Arial, sans-serif" font-size="12" font-weight="700" fill="#166534">Metric-space winner</text>
  <text x="346.0" y="378.0" font-family="Arial, sans-serif" font-size="12" fill="#172033">anomaly_start role</text>
  <text x="346.0" y="398.0" font-family="Arial, sans-serif" font-size="11" fill="#526070">metric value 324</text>
  <text x="346.0" y="416.0" font-family="Arial, sans-serif" font-size="11" fill="#166534">matches expected role</text>
  <rect x="602.0" y="328.0" width="264.0" height="96" rx="8" fill="#ffffff" stroke="#cbd5e1"/>
  <line x1="620.0" y1="350.0" x2="646.0" y2="350.0" stroke="#dc2626" stroke-width="3"/>
  <text x="654.0" y="354.0" font-family="Arial, sans-serif" font-size="12" font-weight="700" fill="#991b1b">Baseline winner</text>
  <text x="620.0" y="378.0" font-family="Arial, sans-serif" font-size="12" fill="#172033">pre_anomaly role</text>
  <text x="620.0" y="398.0" font-family="Arial, sans-serif" font-size="11" fill="#526070">baseline value 181</text>
  <text x="620.0" y="416.0" font-family="Arial, sans-serif" font-size="11" fill="#991b1b">wrong role</text>
  <rect x="54" y="432" width="812" height="44" rx="6" fill="#ffffff" stroke="#cbd5e1"/>
  <text x="72.0" y="452.0" font-family="Arial, sans-serif" font-size="12" fill="#334155">The alignment metric recovers the anomaly_start role despite the timing shift.</text>
  <text x="72.0" y="470.0" font-family="Arial, sans-serif" font-size="12" fill="#334155">The padded-vector baseline compares index by index and locks onto the pre_anomaly level instead.</text>
</svg>
